<svg width="733" height="757" xmlns="http://www.w3.org/2000/svg" xmlns:xlink="http://www.w3.org/1999/xlink" xml:space="preserve" overflow="hidden"><defs><clipPath id="clip0"><rect x="1544" y="682" width="733" height="757"/></clipPath><linearGradient x1="1704.9" y1="736.389" x2="1957.1" y2="1339.76" gradientUnits="userSpaceOnUse" spreadMethod="reflect" id="stroke1"><stop offset="0" stop-color="#D0CECE" stop-opacity="1"/><stop offset="0.74" stop-color="#ABC0E4" stop-opacity="1"/><stop offset="0.83" stop-color="#ABC0E4" stop-opacity="1"/><stop offset="1" stop-color="#C7D5ED" stop-opacity="1"/></linearGradient><linearGradient x1="1868.16" y1="783.146" x2="2120.35" y2="1386.51" gradientUnits="userSpaceOnUse" spreadMethod="reflect" id="stroke2"><stop offset="0" stop-color="#D0CECE" stop-opacity="1"/><stop offset="0.74" stop-color="#ABC0E4" stop-opacity="1"/><stop offset="0.83" stop-color="#ABC0E4" stop-opacity="1"/><stop offset="1" stop-color="#C7D5ED" stop-opacity="1"/></linearGradient></defs><g clip-path="url(#clip0)" transform="translate(-1544 -682)"><path d="M1577.04 876.867C1564.82 847.626 1578.61 814.014 1607.85 801.792L1819.63 713.274C1848.87 701.052 1882.48 714.849 1894.7 744.09L2084.96 1199.28C2097.19 1228.52 2083.39 1262.13 2054.15 1274.35L1842.37 1362.87C1813.13 1375.09 1779.52 1361.3 1767.3 1332.06Z" stroke="url(#stroke1)" stroke-width="45.8333" stroke-linecap="butt" stroke-linejoin="miter" stroke-miterlimit="8" fill="none" fill-rule="evenodd"/><path d="M1740.29 923.624C1728.07 894.383 1741.87 860.77 1771.11 848.548L1982.88 760.031C2012.13 747.809 2045.74 761.605 2057.96 790.846L2248.22 1246.04C2260.44 1275.28 2246.65 1308.89 2217.4 1321.11L2005.63 1409.63C1976.39 1421.85 1942.78 1408.05 1930.55 1378.81Z" stroke="url(#stroke2)" stroke-width="45.8333" stroke-linecap="butt" stroke-linejoin="miter" stroke-miterlimit="8" fill="none" fill-rule="evenodd"/></g></svg>